<svg viewBox="0 0 660 380" preserveAspectRatio="xMidYMid meet" xmlns="http://www.w3.org/2000/svg">
<polygon points="330.0,26.0 28.0,352.0 632.0,352.0" fill="none" stroke="#163D60" stroke-width="2.4" stroke-linejoin="round"/>
<polygon points="330.0,134.7 264.7,205.2 262.4,203.4 259.7,202.1 256.9,201.4 253.9,201.2 251.0,201.6 248.2,202.5 245.7,204.0 243.5,206.0 241.7,208.3 240.4,211.0 239.7,213.8 239.5,216.7 239.9,219.7 240.9,222.4 242.4,225.0 244.3,227.2 179.0,297.7 315.0,297.7 315.3,300.6 316.1,303.4 317.5,306.0 319.4,308.3 321.7,310.1 324.3,311.5 327.1,312.4 330.0,312.7 332.9,312.4 335.7,311.5 338.3,310.1 340.6,308.3 342.5,306.0 343.9,303.4 344.7,300.6 345.0,297.7 481.0,297.7 415.7,227.2 417.6,225.0 419.1,222.4 420.1,219.7 420.5,216.7 420.3,213.8 419.6,211.0 418.3,208.3 416.5,206.0 414.3,204.0 411.8,202.5 409.0,201.6 406.1,201.2 403.1,201.4 400.3,202.1 397.6,203.4 395.3,205.2 330.0,134.7" fill="rgba(226,159,52,.07)" stroke="#163D60" stroke-width="2.4" stroke-linejoin="round"/>
</svg>