<svg viewBox="0 0 660 380" preserveAspectRatio="xMidYMid meet" xmlns="http://www.w3.org/2000/svg">
<polygon points="330.0,30.0 480.0,190.0 422.9,210.3 423.8,213.9 424.0,217.6 423.4,221.3 422.2,224.8 420.2,228.0 417.7,230.8 414.7,233.0 411.4,234.6 407.8,235.5 404.0,235.6 400.3,235.1 396.8,233.8 393.7,231.9 390.9,229.4 388.7,226.4 387.1,223.0 330.0,243.3 272.9,223.0 273.8,219.4 274.0,215.7 273.4,212.0 272.2,208.5 270.2,205.3 267.7,202.6 264.7,200.4 261.4,198.8 257.8,197.9 254.0,197.7 250.3,198.2 246.8,199.5 243.7,201.4 240.9,203.9 238.7,206.9 237.1,210.3 180.0,190.0 330.0,30.0" fill="rgba(226,159,52,.08)" stroke="#163D60" stroke-width="2" stroke-linejoin="round"/>
<polygon points="30.0,350.0 180.0,190.0 237.1,210.3 238.7,206.9 240.9,203.9 243.7,201.4 246.8,199.5 250.3,198.2 254.0,197.7 257.8,197.9 261.4,198.8 264.7,200.4 267.7,202.6 270.2,205.3 272.2,208.5 273.4,212.0 274.0,215.7 273.8,219.4 272.9,223.0 330.0,243.3 330.0,277.7 326.3,278.0 322.7,279.1 319.4,280.9 316.6,283.2 314.2,286.1 312.4,289.4 311.4,293.0 311.0,296.7 311.4,300.4 312.4,303.9 314.2,307.2 316.6,310.1 319.4,312.5 322.7,314.2 326.3,315.3 330.0,315.7 330.0,350.0 30.0,350.0" fill="rgba(22,61,96,.05)" stroke="#163D60" stroke-width="2" stroke-linejoin="round"/>
<polygon points="630.0,350.0 330.0,350.0 330.0,315.7 326.3,315.3 322.7,314.2 319.4,312.5 316.6,310.1 314.2,307.2 312.4,303.9 311.4,300.4 311.0,296.7 311.4,293.0 312.4,289.4 314.2,286.1 316.6,283.2 319.4,280.9 322.7,279.1 326.3,278.0 330.0,277.7 330.0,243.3 387.1,223.0 388.7,226.4 390.9,229.4 393.7,231.9 396.8,233.8 400.3,235.1 404.0,235.6 407.8,235.5 411.4,234.6 414.7,233.0 417.7,230.8 420.2,228.0 422.2,224.8 423.4,221.3 424.0,217.6 423.8,213.9 422.9,210.3 480.0,190.0 630.0,350.0" fill="rgba(22,61,96,.09)" stroke="#163D60" stroke-width="2" stroke-linejoin="round"/>
</svg>