<svg viewBox="0 0 660 380" preserveAspectRatio="xMidYMid meet" xmlns="http://www.w3.org/2000/svg">
<polygon points="330.0,26.0 481.0,189.0 424.3,209.4 425.2,212.8 425.5,216.2 425.2,219.7 424.3,223.1 422.8,226.2 420.8,229.1 418.3,231.5 415.4,233.5 412.3,235.0 408.9,235.9 405.4,236.2 402.0,235.8 398.6,234.9 395.4,233.5 392.6,231.4 390.1,229.0 388.1,226.1 386.7,222.9 330.0,243.3 273.3,222.9 274.2,219.6 274.5,216.1 274.2,212.6 273.3,209.3 271.8,206.1 269.8,203.3 267.3,200.8 264.4,198.8 261.3,197.3 257.9,196.5 254.4,196.2 251.0,196.5 247.6,197.4 244.4,198.9 241.6,200.9 239.1,203.4 237.1,206.2 235.7,209.4 179.0,189.0 330.0,26.0" fill="rgba(226,159,52,.10)" stroke="#163D60" stroke-width="2.2" stroke-linejoin="round"/>
<polygon points="28.0,352.0 179.0,189.0 235.7,209.4 237.1,206.2 239.1,203.4 241.6,200.9 244.4,198.9 247.6,197.4 251.0,196.5 254.4,196.2 257.9,196.5 261.3,197.3 264.4,198.8 267.3,200.8 269.8,203.3 271.8,206.1 273.3,209.3 274.2,212.6 274.5,216.1 274.2,219.6 273.3,222.9 330.0,243.3 330.0,277.7 326.5,278.0 323.2,278.9 320.0,280.3 317.1,282.3 314.7,284.8 312.7,287.7 311.2,290.8 310.3,294.2 310.0,297.7 310.3,301.1 311.2,304.5 312.7,307.7 314.7,310.5 317.1,313.0 320.0,315.0 323.2,316.5 326.5,317.4 330.0,317.7 330.0,352.0 28.0,352.0" fill="rgba(22,61,96,.045)" stroke="#163D60" stroke-width="2.2" stroke-linejoin="round"/>
<polygon points="632.0,352.0 330.0,352.0 330.0,317.7 326.5,317.4 323.2,316.5 320.0,315.0 317.1,313.0 314.7,310.5 312.7,307.7 311.2,304.5 310.3,301.1 310.0,297.7 310.3,294.2 311.2,290.8 312.7,287.7 314.7,284.8 317.1,282.3 320.0,280.3 323.2,278.9 326.5,278.0 330.0,277.7 330.0,243.3 386.7,222.9 388.1,226.1 390.1,229.0 392.6,231.4 395.4,233.5 398.6,234.9 402.0,235.8 405.4,236.2 408.9,235.9 412.3,235.0 415.4,233.5 418.3,231.5 420.8,229.1 422.8,226.2 424.3,223.1 425.2,219.7 425.5,216.2 425.2,212.8 424.3,209.4 481.0,189.0 632.0,352.0" fill="rgba(22,61,96,.10)" stroke="#163D60" stroke-width="2.2" stroke-linejoin="round"/>
</svg>