<svg viewBox="0 0 460 430" preserveAspectRatio="xMidYMid meet" xmlns="http://www.w3.org/2000/svg">
<polygon points="230.0,30.0 330.0,211.0 294.6,232.4 296.0,235.4 296.8,238.6 297.0,242.0 296.5,245.2 295.4,248.4 293.7,251.3 291.5,253.7 288.8,255.7 285.8,257.2 282.5,258.0 279.2,258.1 275.9,257.7 272.8,256.6 269.9,254.9 267.4,252.6 265.4,249.9 230.0,271.3 194.6,249.9 196.0,246.9 196.8,243.7 197.0,240.4 196.5,237.1 195.4,233.9 193.7,231.1 191.5,228.6 188.8,226.6 185.8,225.2 182.5,224.4 179.2,224.2 175.9,224.7 172.8,225.8 169.9,227.5 167.4,229.7 165.4,232.4 130.0,211.0 230.0,30.0" fill="rgba(226,159,52,.07)" stroke="#163D60" stroke-width="2" stroke-linejoin="round"/>
<polygon points="30.0,392.0 130.0,211.0 165.4,232.4 167.4,229.7 169.9,227.5 172.8,225.8 175.9,224.7 179.2,224.2 182.5,224.4 185.8,225.2 188.8,226.6 191.5,228.6 193.7,231.1 195.4,233.9 196.5,237.1 197.0,240.4 196.8,243.7 196.0,246.9 194.6,249.9 230.0,271.3 230.0,314.7 226.7,315.0 223.5,316.0 220.6,317.5 218.0,319.6 215.9,322.2 214.3,325.2 213.3,328.4 213.0,331.7 213.3,335.0 214.3,338.2 215.9,341.1 218.0,343.7 220.6,345.8 223.5,347.4 226.7,348.3 230.0,348.7 230.0,392.0 30.0,392.0" fill="rgba(22,61,96,.05)" stroke="#163D60" stroke-width="2" stroke-linejoin="round"/>
<polygon points="430.0,392.0 230.0,392.0 230.0,348.7 226.7,348.3 223.5,347.4 220.6,345.8 218.0,343.7 215.9,341.1 214.3,338.2 213.3,335.0 213.0,331.7 213.3,328.4 214.3,325.2 215.9,322.2 218.0,319.6 220.6,317.5 223.5,316.0 226.7,315.0 230.0,314.7 230.0,271.3 265.4,249.9 267.4,252.6 269.9,254.9 272.8,256.6 275.9,257.7 279.2,258.1 282.5,258.0 285.8,257.2 288.8,255.7 291.5,253.7 293.7,251.3 295.4,248.4 296.5,245.2 297.0,242.0 296.8,238.6 296.0,235.4 294.6,232.4 330.0,211.0 430.0,392.0" fill="rgba(22,61,96,.09)" stroke="#163D60" stroke-width="2" stroke-linejoin="round"/>
</svg>