<svg viewBox="0 0 660 380" preserveAspectRatio="xMidYMid meet" xmlns="http://www.w3.org/2000/svg">
<polygon points="330.0,26.0 481.0,189.0 350.0,189.0 349.7,185.5 348.8,182.2 347.3,179.0 345.3,176.1 342.9,173.7 340.0,171.7 336.8,170.2 333.5,169.3 330.0,169.0 326.5,169.3 323.2,170.2 320.0,171.7 317.1,173.7 314.7,176.1 312.7,179.0 311.2,182.2 310.3,185.5 310.0,189.0 179.0,189.0 330.0,26.0" fill="rgba(22,61,96,.055)" stroke="#163D60" stroke-width="2.2" stroke-linejoin="round"/>
<polygon points="28.0,352.0 179.0,189.0 240.9,255.8 238.6,258.4 236.7,261.4 235.4,264.6 234.7,268.0 234.5,271.5 235.0,274.9 236.1,278.3 237.7,281.3 239.8,284.1 242.4,286.4 245.4,288.3 248.6,289.6 252.0,290.3 255.5,290.5 258.9,290.0 262.3,288.9 265.3,287.3 268.1,285.2 330.0,352.0 28.0,352.0" fill="rgba(22,61,96,.055)" stroke="#163D60" stroke-width="2.2" stroke-linejoin="round"/>
<polygon points="632.0,352.0 481.0,189.0 419.1,255.8 421.4,258.4 423.3,261.4 424.6,264.6 425.3,268.0 425.5,271.5 425.0,274.9 423.9,278.3 422.3,281.3 420.2,284.1 417.6,286.4 414.6,288.3 411.4,289.6 408.0,290.3 404.5,290.5 401.1,290.0 397.7,288.9 394.7,287.3 391.9,285.2 330.0,352.0 632.0,352.0" fill="rgba(22,61,96,.055)" stroke="#163D60" stroke-width="2.2" stroke-linejoin="round"/>
<polygon points="179.0,189.0 310.0,189.0 310.3,185.5 311.2,182.2 312.7,179.0 314.7,176.1 317.1,173.7 320.0,171.7 323.2,170.2 326.5,169.3 330.0,169.0 333.5,169.3 336.8,170.2 340.0,171.7 342.9,173.7 345.3,176.1 347.3,179.0 348.8,182.2 349.7,185.5 350.0,189.0 481.0,189.0 419.1,255.8 421.4,258.4 423.3,261.4 424.6,264.6 425.3,268.0 425.5,271.5 425.0,274.9 423.9,278.3 422.3,281.3 420.2,284.1 417.6,286.4 414.6,288.3 411.4,289.6 408.0,290.3 404.5,290.5 401.1,290.0 397.7,288.9 394.7,287.3 391.9,285.2 330.0,352.0 268.1,285.2 265.3,287.3 262.3,288.9 258.9,290.0 255.5,290.5 252.0,290.3 248.6,289.6 245.4,288.3 242.4,286.4 239.8,284.1 237.7,281.3 236.1,278.3 235.0,274.9 234.5,271.5 234.7,268.0 235.4,264.6 236.7,261.4 238.6,258.4 240.9,255.8 179.0,189.0" fill="#fbeed0" stroke="#E29F34" stroke-width="2.4" stroke-linejoin="round"/>
</svg>